<?xml version="1.0" encoding="utf-8"?>
<!-- Generator: Adobe Illustrator 27.8.1, SVG Export Plug-In . SVG Version: 6.00 Build 0)  -->
<svg version="1.1" id="Layer_1" xmlns="http://www.w3.org/2000/svg" xmlns:xlink="http://www.w3.org/1999/xlink" x="0px" y="0px"
	 viewBox="0 0 320 320" style="enable-background:new 0 0 320 320;" xml:space="preserve">
<style type="text/css">
	.st0{fill:#54B848;}
	.st1{fill:#132D46;}
</style>
<g>
	<g id="academy">
		<path class="st0" d="M139.2,189.6l10.9-14.2l0.6,1.4c-1.2,1.7-10.6,15.3-11.5,16.7V189.6z"/>
		<polygon class="st0" points="153.2,171.3 151.8,173.2 153.2,174 154.6,172 		"/>
		<path class="st0" d="M287.6,223.4c2.1,0.6,1.2,1.4,0.3,2.8c-1.6,2.8-4.6,6-8.1,7.1c-0.4,0.1-0.9,0.1-1.3,0.2L287.6,223.4z"/>
		<polygon class="st0" points="214.2,211 213.4,215.3 214.2,215.3 215.4,211.8 		"/>
		<path class="st0" d="M306.8,201.2c-2.2,1.4-5.1,2.3-6.5,4.3c-2.5,3.4-4.1,7.4-6,11.2c-3.1,6-6,12.2-11.8,16.3
			c-1.1,0.8-3.4,1.5-4.4,1c-1.1-0.6-2-2.8-1.8-4.1c0.4-2.7,1-5.6,2.6-7.8c3.6-4.9,7.2-9.7,12.7-12.9c4.8-2.9,6.1-11.5,2.7-18.3
			c-1.2,2.7-1.9,5.1-3.1,7.1c-2.6,4.4-5.4,8.6-8.4,12.7c-0.8,1-3.1,1.9-4.2,1.5c-1.1-0.5-1.7-2.5-1.9-4c-0.2-1.8,0.2-3.6,0.4-6.1
			c-1.3,1.4-2.4,2.4-3.4,3.5c-2.3,2.5-5.1,2.2-6.2-1c-0.9-2.8-1.3-5.7-2.1-9.9c-3,4.2-5.6,7.9-8.2,11.6c-3.9-3.6-0.8-8.3-1.5-12.9
			c-6.6,5.6-9,13.5-13.9,20.6c-3-5.4,1.4-9.2,1.3-14.4c-2.3,2.2-3.8,4.1-5.8,5.4c-2.4,1.6-4.9,3.4-7.6,4.1c-5,1.2-8.1-3-6.1-8.2
			c1-2.7,2.7-5.1,4.4-7.5c1.7-2.4,3.9-2.3,6.1-0.4c2.2,1.9,2.4,4.4,0.2,6.3c-2.7,2.5-5.6,4.8-8.5,7.1c0.1,0.3,0.2,0.7,0.3,1
			c1.9-0.4,4.2-0.2,5.6-1.3c4.5-3.3,8.9-6.8,13-10.6c1.4-1.3,1.7-3.7,2.8-5.5c1-1.7,2.3-3.1,3.9-5.2c0.8,1.3,1.3,2,1.7,2.8
			c0.3,0.6,0.6,1.7,0.9,1.7c5.5,0.5,4.3,4.5,4.4,7.8c0,0.6,0.1,1.1,0.2,2.5c1.7-1.9,2.8-3.5,4.3-4.8c1.1-1,2.6-1.6,3.9-2.4
			c0.5,1.4,1.2,2.7,1.3,4.1c0.2,2.6,0.1,5.2,0.1,8.8c5.7-3.3,9.7-6.6,12.4-11.4c1.2-2.1,2.2-4.3,3.5-6.4c0.4-0.7,1.5-0.9,2.3-1.4
			c0.3,0.2,0.6,0.5,0.9,0.7c-1.5,3.5-3.2,7-4.6,10.7c-1.4,3.6-2.4,7.4-3.1,11.4c6.7-5.5,10.6-12.8,14.6-20.2c5,3.9,3,9.3,4.6,13.5
			c2.6-0.7,5.2-1.4,7.8-2C306.6,200.5,306.7,200.9,306.8,201.2z M285.6,228.6c0.2-0.3,0.3-0.6,0.5-1c0.8-1.1,1.6-2.2,2.4-3.3
			c-0.2-0.2-0.5-0.4-0.7-0.6c-0.6,0.6-1.3,1.1-1.9,1.7c1.1-1.5,2.3-2.9,3.1-4.6c1.6-3.1,3-6.3,4.5-9.5c-0.4-0.2-0.8-0.4-1.2-0.5
			c-6.3,5.8-12.4,11.6-14.3,20.3c0.4,0.3,0.8,0.7,1.2,1c2.3-2.3,4.6-4.5,6.8-6.7c-0.1,0.6-0.1,1.3-0.2,1.9c-0.2,0.2-0.5,0.5-0.7,0.7
			c-0.2,0.2-0.5,0.5-0.7,0.7c-0.5,0.5-0.9,0.9-1.4,1.4c-0.2,0.3-0.4,0.6-0.6,0.8c0.3-0.1,0.7-0.2,1-0.2c0.5-0.5,1-1,1.4-1.5
			C285.2,229.1,285.4,228.8,285.6,228.6z M281,232.5c-0.5,0.1-1,0.1-1.6,0.1c0.1,0.2,0.1,0.4,0.2,0.6
			C280.1,232.9,280.5,232.7,281,232.5c0.2-0.2,0.4-0.3,0.7-0.4c-0.2-0.1-0.3-0.2-0.5-0.3C281.2,232,281.1,232.2,281,232.5z
			 M226,203.2c6.1-3.4,7.9-5.9,7.2-9.6C230.3,193.9,226.8,198.4,226,203.2z M243.6,199.6c-0.1,0.1-0.2,0.2-0.2,0.2
			c0,0.2,0.1,0.3,0.2,0.5c0.1-0.1,0.2-0.2,0.2-0.2C243.8,199.9,243.7,199.7,243.6,199.6z"/>
		<path class="st0" d="M214.7,214.2c-0.4,2.7-0.8,5.4-1.3,8.7c-0.8-1.4-2.2-2.8-2.1-4c0.2-2.8,0.9-5.7,1.7-8.4
			c1.2-4.3,2.7-8.6,4-12.8c0.2-0.5,0.5-0.9,0.7-1.4c-0.2-0.1-0.3-0.2-0.5-0.2c-0.3,0.4-0.5,0.8-0.8,1.2c-1.9,2.6-3.9,5.2-5.7,7.8
			c-1.3,1.8-2.2,3.8-3.6,5.6c-2.7,3.5-5.7,3.3-7.7-0.6c-1.5-2.9-3.4-0.6-4.8-0.4c-5.4-3.3-2.6-7.5-0.7-12.2
			c-6.4,2.4-7.1,9.3-12.2,12.1c-0.7-1.2-1.4-2.2-2.2-3.5c-0.9,0.5-2,0.8-2.6,1.5c-3.2,3.4-7.4,5-11.8,5.8c-6.2,1.3-11-4.2-8.8-10
			c2.3-6.2,5.5-11.9,11.6-15.2c1.5-0.8,3.3-1.3,5-1.4c3-0.2,4.6,1.8,3.3,4.5c-1.5,2.9-3.4,5.7-5.6,8.2c-1.4,1.6-2,1.2-3.5-1.2
			c3-0.2,8.5-6.5,7.7-9.3c-0.2-0.7-2.7-1.6-3.4-1.2c-2.4,1.3-4.7,2.8-6.5,4.7c-3.5,3.9-6.7,8-7.4,13.4c-0.6,4.6,1.3,6.6,6.1,5.9
			c5.4-0.8,10-3.2,13.8-7.1c3.8-3.9,7.5-8,11.4-11.8c1.1-1.1,3.6-2.1,4.7-1.5c2.1,1,3.6,3,2.4,5.8c-0.9,2.2-1.7,4.4-2.3,6.6
			c-0.3,1.2-0.4,2.4-0.7,4.2c5.1-1.4,7.8-4.7,10.4-8c1.4-1.8,2.2-4.2,3.7-5.8c0.8-0.9,2.8-1,4.2-0.8c1.1,0.2,2,1.5,3.4,2.6
			c5.5-8.3,10.9-16.6,16.3-24.8c0.3,0.1,0.6,0.1,1,0.2c0,1,0.4,2.3-0.1,3.1c-3.1,6.2-6.5,12.3-9.6,18.6c-1.8,3.7-3.1,7.7-4.5,11.5
			c-1.2,3.2-2.2,6.5-3.3,9.8c0.1-0.7,0.1-1.3,0.2-1.9c-0.3,0.1-0.6,0.2-1,0.2C214.1,213.2,214.4,213.7,214.7,214.2z M186.9,200.3
			c0.2-0.5,0.5-0.9,0.7-1.4c2.6-0.7,3.9-2.4,4.4-4.6c-0.3-0.2-0.6-0.4-0.9-0.7c-1.1,1.8-2.3,3.5-3.5,5.3c-0.3,0.4-0.6,0.8-0.9,1.3
			c-0.2,0.2-0.5,0.3-0.7,0.5c0.1,0.1,0.3,0.3,0.4,0.4C186.6,200.7,186.8,200.5,186.9,200.3z M211.9,195.3
			c-4.5,2.3-9.8,11.9-8.9,16.3C207.1,206.6,212.9,203.1,211.9,195.3z"/>
		<path class="st0" d="M149.8,175.8c1-1.4,2-2.8,3-4.2c0,0.6,0,1.3,0,1.9c0.3-0.2,0.7-0.3,1.1-0.5c-0.4-0.4-0.7-0.9-1.1-1.3
			c1.9-1.5,3.2-4.9,6.3-3c2.8,1.7,1.4,4.6,0.8,7c-2.1,8.3-4.7,16.6-6.5,24.9c-1.5,6.6-2.2,13.4-3.2,19.9c-1.7-0.6-2.4-1.9-1.8-5.3
			c0.8-5,1.6-10.1,2.5-15.8c-2.6,0.3-4.8,0.9-7.1,0.8c-7-0.2-10.5,3.4-12.5,9.7c-1.9,5.9-4.5,11.7-6.9,17.8
			c-2.8-2.4-1.5-5.1-0.5-7.5c2-4.7,4.2-9.3,6.3-14c0.4-0.8,0.5-1.7,1-3.4c-2.7,1-4.7,1.9-7.8,3.1c1.1-1.5,1.6-3,2.3-3.1
			c6.2-1,9.9-4.7,12.1-10.3c0.6-1.5,1.8-2.7,2.5-3.7c-0.1,0.3-0.2,0.9-0.6,2.6c1.6-1.3,2.4-2,3.3-2.8l-0.1-0.1
			c-1.9,3.4-3.8,6.7-6.1,10.8c5.5-0.6,10-1.1,14.7-1.7c2.2-8.7,4.5-17.5,6.7-26.4c-0.3-0.2-0.6-0.3-0.9-0.5
			c-0.9,0.9-1.9,1.8-2.8,2.7c-1.3,1.3-2.6,2.6-3.9,3.8l0.1,0.1C150.3,176.7,150,176.2,149.8,175.8L149.8,175.8z"/>
		<path class="st0" d="M142.7,188.4c0.6-2.2,0.7-4.7,2-6.4c1.4-2,3.9-3.3,5.9-4.9l-0.1-0.1C147.9,180.9,145.3,184.6,142.7,188.4
			L142.7,188.4z"/>
		<path class="st0" d="M149.8,175.7l0,0.2L149.8,175.7L149.8,175.7z"/>
	</g>
	<g id="awah_00000160176814315801753540000017347656530709412022_">
		<path id="h_00000040571140094699544240000009754704258935895743_" class="st1" d="M201.2,150.4c1.8-6.6,3.6-13.2,5.5-19.7
			c4.9-1.6,6-1.2,7.2,3.1c1.2,4,2.2,8.1,3.3,12.1c0.3,1.2,0.8,2.3,1.9,3.4c1.6-6.3,3.1-12.7,4.7-19.2c2.4,0,4.6,0,7.5,0
			c-1.1,3.9-2.2,7.4-3.2,10.9c-1.6,5.4-3.3,10.7-4.6,16.1c-0.7,2.9-2.6,3.3-5.2,3.4c-2.6,0.1-3.6-1-4.1-3.3
			c-0.6-2.8-1.5-5.6-2.3-8.4c-0.3-1.1-0.9-2.2-1.4-3.3c-0.4,0-0.8-0.1-1.2-0.1c-0.6,1.5-1.4,2.9-1.9,4.4c-0.5,1.4-1,2.9-1.3,4.3
			c-1.6,6.5-1.8,6.7-9.3,5.9c-2.7-9.8-5.6-19.6-8.5-29.9c3,0,5.3,0,7.8,0c1.5,6.8,3,13.5,4.5,20.1
			C200.8,150.3,201,150.4,201.2,150.4z"/>
		<path id="h" class="st1" d="M265.6,116.5c2.4,0,4.7,0,7.3,0c0,5.6,0,10.9,0,16.7c1.5-1.2,2.5-2.2,3.7-2.7c6.9-3.4,14.2,0.7,14.8,9
			c0.6,6.8,0.1,13.7,0.1,20.9c-2.4,0-4.7,0-7.4,0c0-4.5,0-9,0-13.5c0-1.8,0.1-3.5-0.2-5.2c-0.6-3.6-2.5-5.4-5.5-5.2
			c-3.1,0.2-5.3,2.4-5.3,5.9c-0.1,4.9,0,9.8-0.1,14.7c0,1-0.2,2.1-0.3,3.4c-2.3,0-4.5,0-7.1,0C265.6,145.7,265.6,131.2,265.6,116.5z
			"/>
		<path id="second_a" class="st1" d="M184.9,160.2c-2.5-0.1-5.2,1.4-7.1-1.3c-2.6,0.7-5.3,1.9-8.1,2.2c-4.3,0.4-7.7-1.8-9-5.4
			c-1.5-4-0.4-8.6,2.7-11.2c3-2.5,6.4-4.1,10.5-4.3c1-0.1,2.1-0.2,3.1-0.3c-0.8-4.9-3.3-5.4-13.2-3.1c-2.4-5-1.9-6,3.4-7
			c1.9-0.3,3.8-0.5,5.6-0.6c7.2-0.1,11.5,3.9,11.9,10.9c0.2,3.3,0.1,6.5,0.1,9.8C184.9,153.2,184.9,156.5,184.9,160.2z M177,146.3
			c-5.9-0.3-9.3,1.5-9.3,5c0.1,2.9,1.9,4.6,4.8,4.3C176,155.2,177.9,151.3,177,146.3z"/>
		<path id="First_a" class="st1" d="M257.9,160.4c-2.6-0.6-5.5,1.5-6.8-1.4c-3,0.7-5.9,1.8-8.8,2.1c-4.3,0.4-7.6-2.1-8.8-5.7
			c-1.3-3.9-0.1-8.6,2.9-10.8c2.9-2.2,5.9-4.2,9.8-4.2c1.1,0,2.3-0.3,3.5-0.4c-0.2-4.8-3.6-5.6-12.6-3c-2.8-4.2-2.2-5.7,2.7-6.8
			c1.8-0.4,3.8-0.6,5.6-0.7c7.5-0.2,11.7,3.1,12.3,10.5C258.3,146.4,257.9,153.2,257.9,160.4z M251.1,146.8
			c-0.4-0.4-0.7-0.7-1.1-1.1c-2.3,0.6-5,0.7-6.9,1.9c-1.2,0.7-1.9,3.1-1.8,4.7c0,1.1,1.7,3.1,2.6,3c1.8-0.1,4.1-0.8,5-2
			C250.2,151.6,250.4,149,251.1,146.8z"/>
	</g>
	<g id="D_letter">
		<path class="st0" d="M47.3,152.3c-0.8,1.8-1.5,3.6-2.4,5.3c-3.8,7.7-5.5,15.8-5.5,24.3c0,6.8,4.3,8.3,9.4,6.7
			c5.8-1.8,11.6-4.1,17-6.9c8.1-4.2,16.1-8.8,23.8-13.7c4.1-2.6,7.7-6.1,11.2-9.5c3.1-2.9,3.1-6.1-0.2-8.7
			c-3.5-2.7-7.1-5.5-11.1-7.3c-10.3-4.5-19.4-10.7-27.9-17.8c-4.1-3.4-7.9-7.4-11.3-11.5c-3.5-4.2-1.5-9.3-1.7-15.1
			c8.1,4.4,15.2,8.3,23.1,12.6c-1.7,1.4-2.8,2.4-4.5,3.8c0.8,1,1.5,2.7,2.8,3.5c2.8,1.8,6.1,3,9,4.8c4.1,2.6,8.1,5.5,12,8.5
			c3.5,2.6,7.2,5.3,10.4,8.3c6.3,6,7.4,13.6,4.1,21.5c-2.4,5.7-6.7,10-11.3,14c-5.6,4.7-11,9.8-17.1,13.9c-5.5,3.7-11.8,6.3-18,9.1
			c-3.3,1.5-7,2.4-10.6,2.9c-8,1-12.3-4.8-12.9-11.2c-1.2-12.6,2.3-24.2,8.3-35.1c0.6-1.1,1.8-2,2.8-2.9
			C46.8,151.9,47.1,152.1,47.3,152.3z"/>
		<path class="st0" d="M35.4,148.1c-1.5,3.2-2.8,6.4-4.4,9.6c-6.9,13.8-10.2,28.5-10.2,43.7c0,12.2,7.9,14.8,17.4,12
			c10.8-3.2,21.4-7.3,31.4-12.4c15-7.6,29.7-15.9,43.9-24.7c7.6-4.7,14.1-11,20.8-17.1c5.7-5.2,5.7-10.9-0.4-15.6
			c-6.4-4.9-13.2-9.9-20.6-13.1c-19-8.1-35.8-19.2-51.5-32C54.2,92.4,47.2,85.3,41,77.9c-6.4-7.6-2.8-16.7-3.1-27.1
			c14.9,7.9,28.1,14.9,42.7,22.7c-3.1,2.6-5.2,4.2-8.4,6.9c1.5,1.9,2.8,4.8,5.2,6.3c5.3,3.2,11.3,5.3,16.6,8.6
			c7.6,4.7,14.9,10,22.1,15.2c6.5,4.8,13.2,9.5,19.1,15c11.5,10.7,13.7,24.5,7.5,38.6c-4.6,10.3-12.3,18-20.8,25.2
			c-10.3,8.6-20.3,17.7-31.5,25c-10.2,6.6-21.8,11.4-33.2,16.3c-6.2,2.6-13,4.4-19.7,5.2c-14.7,1.9-22.7-8.6-23.9-20.1
			c-2.3-22.6,4.2-43.5,15.3-63.2c1.2-2,3.4-3.5,5.1-5.3C34.5,147.4,34.9,147.8,35.4,148.1z"/>
	</g>
</g>
</svg>
